<?xml version="1.0" encoding="UTF-8" standalone="no"?>
<svg
   width="800"
   height="800"
   viewBox="0 0 211.66666 211.66667"
   version="1.1"
   id="svg1"
   xml:space="preserve"
   inkscape:version="1.3 (0e150ed6c4, 2023-07-21)"
   sodipodi:docname="LSS_LogoF.svg"
   xmlns:inkscape="http://www.inkscape.org/namespaces/inkscape"
   xmlns:sodipodi="http://sodipodi.sourceforge.net/DTD/sodipodi-0.dtd"
   xmlns="http://www.w3.org/2000/svg"
   xmlns:svg="http://www.w3.org/2000/svg"><sodipodi:namedview
     id="namedview1"
     pagecolor="#505050"
     bordercolor="#eeeeee"
     borderopacity="1"
     inkscape:showpageshadow="0"
     inkscape:pageopacity="0"
     inkscape:pagecheckerboard="0"
     inkscape:deskcolor="#505050"
     inkscape:document-units="mm"
     inkscape:zoom="1.0343421"
     inkscape:cx="295.84023"
     inkscape:cy="329.19477"
     inkscape:window-width="1920"
     inkscape:window-height="1017"
     inkscape:window-x="3832"
     inkscape:window-y="-8"
     inkscape:window-maximized="1"
     inkscape:current-layer="layer1"
     showguides="true" /><defs
     id="defs1" /><g
     inkscape:label="Layer 1"
     inkscape:groupmode="layer"
     id="layer1"><g
       id="g23"
       transform="matrix(1.3305224,0,0,1.3305224,-248.66009,-94.396508)"><rect
         style="fill-opacity:0;stroke:none;stroke-width:0.264583;stroke-linejoin:round;stroke-opacity:1"
         id="rect23"
         width="159.08539"
         height="159.08539"
         x="186.88907"
         y="70.946953"
         rx="1.250555" /><rect
         style="fill:#a02833;fill-opacity:1;stroke:none;stroke-width:0.438285;stroke-linejoin:round;stroke-opacity:1"
         id="rect22"
         width="110.27943"
         height="52.847366"
         x="216.20767"
         y="153.47304"
         rx="1.8171166" /><rect
         style="fill:#db4657;fill-opacity:1;stroke:none;stroke-width:0.41184;stroke-linejoin:round"
         id="rect19"
         width="97.395424"
         height="52.835037"
         x="209.88281"
         y="153.4792"
         rx="1.250555" /><path
         style="fill:#7a0f1a;fill-opacity:1;stroke:none;stroke-width:0.264583px;stroke-linecap:butt;stroke-linejoin:miter;stroke-opacity:1"
         d="m 218.89971,149.25852 16.24322,-44.44501 0.83134,-0.57555 98.7383,0.1279 0.83135,1.08714 -0.7674,3.51723 -94.45367,0.064 -15.09212,41.82309 z"
         id="path17" /><path
         style="fill:#a02833;fill-opacity:1;stroke:none;stroke-width:0.264583px;stroke-linecap:butt;stroke-linejoin:miter;stroke-opacity:1"
         d="m 239.36361,108.97023 -14.8683,41.24754 96.27623,-0.44765 15.31596,-41.58327 -95.7007,0.0799 c -0.36906,3.1e-4 -0.78021,0.021 -1.02319,0.70349 z"
         id="path16"
         sodipodi:nodetypes="scccsss" /><path
         style="fill:#b84151;fill-opacity:1;stroke:none;stroke-width:0.264583px;stroke-linecap:butt;stroke-linejoin:miter;stroke-opacity:1"
         d="m 218.57996,149.32247 16.30717,-44.50896 c 0.2527,-0.68973 0.83711,-0.8953 1.47084,-0.8953 h 98.3546 c 0.95378,0 1.35295,0.55057 1.72664,1.08715 0,0 1.66268,2.38745 2.49402,3.58118 0.36927,0.53024 0.26729,1.10203 0.064,1.66269 l -14.02097,38.65757 1.80659,-0.032 c 1.00983,-0.0179 1.13996,0.71085 1.15109,1.27899 l 0.0639,3.26143 c 0.0134,0.685 -0.54659,1.28226 -1.53479,1.279 l -19.37674,-0.064 v -5.75547 h 12.27834 l 15.47582,-42.27074 c 0.37783,-1.032 -0.078,-2.04638 -1.279,-2.04638 h -97.0756 c -0.77125,0 -0.95613,0.40424 -1.08714,0.76739 l -15.98742,44.31712 z"
         id="path15"
         sodipodi:nodetypes="csssssscsssscccsssscc" /><path
         style="fill:#fa7765;fill-opacity:1;stroke:none;stroke-width:0.264583px;stroke-linecap:butt;stroke-linejoin:miter;stroke-opacity:1"
         d="m 295.41549,150.15382 17.87393,-22.22251 8.95296,7.29027 -13.46141,16.85073 z"
         id="path12"
         sodipodi:nodetypes="ccccc" /><rect
         style="fill:#b84151;fill-opacity:1;stroke:none;stroke-width:0.37132;stroke-linejoin:round"
         id="rect18"
         width="23.423569"
         height="5.788063"
         x="303.42114"
         y="148.86174"
         rx="2.4630704" /><path
         style="fill:#ebe17b;fill-opacity:1;stroke:none;stroke-width:0.264583px;stroke-linecap:butt;stroke-linejoin:miter;stroke-opacity:1"
         d="m 241.70462,149.1395 c 0.38484,-0.39912 0.28494,-1.08601 -0.32132,-1.64501 L 221.06459,128.2747 c -1.95667,-2.24203 -0.27617,-5.16141 2.36237,-5.23541 l 26.00239,0.68056 c 2.41275,0.0421 3.98405,-0.14599 5.02161,-2.56425 l 11.4172,-23.662908 c 1.55104,-3.253896 5.12442,-2.340461 5.80907,0.339808 l 7.41596,25.34472 c 0.47007,1.52673 1.05618,2.98383 3.61754,3.25579 l 26.35504,3.52162 c 3.45708,0.44644 3.74936,4.14019 1.42507,5.74605 l -18.91715,13.16107 -25.1419,3.25579 z"
         id="path9"
         sodipodi:nodetypes="ccccccccccccccc" /><path
         style="fill:#000000;fill-opacity:1;stroke:none;stroke-width:0.264583px;stroke-linecap:butt;stroke-linejoin:miter;stroke-opacity:1"
         d="m 250.15286,136.29081 c 2.35081,-10.41358 12.88479,-7.62158 12.93271,1.08526 l -0.24419,-0.0824 c -2.78619,-6.68896 -7.84489,-8.48637 -12.41284,-0.97702 z"
         id="path10"
         sodipodi:nodetypes="ccccc" /><path
         style="fill:#000000;fill-opacity:1;stroke:none;stroke-width:0.264583px;stroke-linecap:butt;stroke-linejoin:miter;stroke-opacity:1"
         d="m 268.79419,137.79363 c 2.35081,-10.41358 12.88479,-7.62158 12.93271,1.08526 l -0.24419,-0.0824 c -2.78619,-6.68896 -7.84489,-8.48637 -12.41284,-0.97702 z"
         id="path11"
         sodipodi:nodetypes="ccccc" /><path
         style="fill:#cbd6d9;fill-opacity:1;stroke:none;stroke-width:0.264583px;stroke-linecap:butt;stroke-linejoin:miter;stroke-opacity:1"
         d="m 222.56912,149.76613 -9.8578,-6.69244 c -0.55699,-0.37814 -1.09769,-0.38775 -1.53745,-0.0904 -11.65258,7.87912 -24.21396,-0.28689 -23.69488,-12.84227 0.0421,-1.01852 1.3209,-2.04959 2.44183,-1.26614 l 8.41078,5.87851 c 0.57825,0.40416 1.17149,0.43785 1.80877,0.18087 l 5.91047,-2.38337 c 0.77822,-0.31382 1.14977,-0.67374 1.14374,-1.41504 l -0.053,-6.51157 c -0.006,-0.76908 -0.30915,-1.27024 -0.85141,-1.6279 l -8.50122,-5.60718 c -1.28618,-0.84833 -0.63028,-2.30872 0.18088,-2.71316 10.54314,-5.25669 23.82051,2.727 20.89129,16.73112 -0.12156,0.58115 -0.27464,1.31937 0.45219,1.80877 l 27.13155,18.26858 z"
         id="path13"
         sodipodi:nodetypes="csssssssssssssscc" /><path
         style="fill:#cbd6d9;fill-opacity:1;stroke:none;stroke-width:0.264583px;stroke-linecap:butt;stroke-linejoin:miter;stroke-opacity:1"
         d="m 297.1644,112.72476 9.70531,-12.14258 c 0.45198,-0.56548 1.40705,-0.47001 1.98777,-0.0256 l 4.15013,3.17633 c 0.68532,0.52451 1.14441,1.19881 0.4522,2.35139 -1.11287,4.75038 3.91192,7.78847 7.77769,5.51675 1.12836,-0.66308 2.38866,-1.33196 4.16018,0.0904 l 13.27893,10.66171 c 3.10482,2.49288 6.78219,10.24512 6.89795,16.80036 0.10361,5.86768 -1.67562,11.48601 -3.89794,14.68227 -1.89478,2.72517 -4.25882,0.44529 -3.82493,-1.73934 1.57686,-7.93949 -7.70544,-14.40353 -9.65041,-13.99696 -2.75064,0.57499 -5.18551,-0.26664 -7.05421,-1.80877 l -9.31516,-7.68727 c -1.65128,-1.3627 -1.30633,-3.01012 -0.99484,-4.61236 1.04312,-5.3655 -3.53718,-7.68953 -6.96375,-5.99543 -0.83097,0.8362 -1.62894,0.72266 -2.35047,0.1654 l -4.16111,-3.21378 c -0.82742,-0.63905 -0.70542,-1.58689 -0.19734,-2.22256 z"
         id="path14"
         sodipodi:nodetypes="sssscsssssssssscssss" /><rect
         style="fill:#e36f78;fill-opacity:1;stroke:none;stroke-width:0.351042;stroke-linejoin:round"
         id="rect17"
         width="100.31054"
         height="5.9744735"
         x="208.44234"
         y="148.7088"
         rx="1.3775704" /><path
         style="fill:#eeeeee;fill-opacity:1;stroke:none;stroke-width:0.264583px;stroke-linecap:butt;stroke-linejoin:miter;stroke-opacity:1"
         d="m 229.38746,165.86419 h -11.25514 v 29.15032 h 22.89398 v -8.28148 l -11.63884,-0.0213 z"
         id="path19"
         sodipodi:nodetypes="ccccccc" /><path
         style="fill:#f7f7f7;fill-opacity:1;stroke:none;stroke-width:0.264583px;stroke-linecap:butt;stroke-linejoin:miter;stroke-opacity:1"
         d="m 268.69276,165.86419 v 7.64205 h -14.10842 v 3.12013 h 11.16916 l 4.4767,3.81298 v 10.83805 l -4.56713,3.73711 H 244.8622 v -7.62596 h 14.28929 v -3.48188 h -11.12394 l -4.34105,-3.70798 v -10.62652 l 4.34105,-3.70798 z"
         id="path21" /><path
         style="fill:#f7f7f7;fill-opacity:1;stroke:none;stroke-width:0.264583px;stroke-linecap:butt;stroke-linejoin:miter;stroke-opacity:1"
         d="m 297.54264,165.86419 v 7.64205 h -14.10842 v 3.12013 h 11.16916 l 4.4767,3.81298 v 10.83805 l -4.56713,3.73711 h -20.80087 v -7.62596 h 14.28929 v -3.48188 h -11.12394 l -4.34105,-3.70798 v -10.62652 l 4.34105,-3.70798 z"
         id="path22" /></g></g></svg>